<?xml version="1.0" standalone="no"?>
<!DOCTYPE svg PUBLIC "-//W3C//DTD SVG 20010904//EN"
 "http://www.w3.org/TR/2001/REC-SVG-20010904/DTD/svg10.dtd">
<svg version="1.0" xmlns="http://www.w3.org/2000/svg"
 width="512.000000pt" height="512.000000pt" viewBox="0 0 512.000000 512.000000"
 preserveAspectRatio="xMidYMid meet">

<g transform="translate(0.000000,512.000000) scale(0.100000,-0.100000)"
fill="#000000" stroke="none">
<path d="M2368 3933 c-224 -292 -326 -433 -571 -783 -357 -510 -397 -601 -397
-893 0 -317 38 -418 226 -597 176 -168 877 -682 930 -683 13 0 59 24 101 54
103 70 729 541 816 614 108 89 191 214 222 332 23 85 30 263 16 377 -33 263
-86 364 -487 926 -246 344 -648 875 -665 878 -12 2 -72 -69 -191 -225z m224
-210 c62 -68 562 -764 601 -838 17 -31 22 -58 22 -120 0 -123 -21 -158 -326
-525 -287 -346 -317 -380 -336 -380 -14 0 -552 641 -604 719 -65 98 -74 213
-25 309 25 50 476 683 566 796 30 36 59 66 65 66 6 0 23 -12 37 -27z m835
-1214 c38 -79 56 -317 32 -431 -17 -84 -74 -191 -137 -259 -72 -79 -539 -430
-566 -427 -28 4 -39 56 -34 168 5 117 23 154 142 292 169 194 323 394 436 563
87 131 103 143 127 94z m-1664 -26 c175 -253 335 -461 495 -643 41 -47 83 -98
93 -115 30 -47 40 -120 31 -230 -6 -83 -10 -100 -24 -103 -11 -2 -74 39 -154
100 -75 57 -187 140 -249 185 -276 201 -353 381 -299 702 18 104 36 151 59
151 9 0 30 -21 48 -47z"/>
</g>
</svg>
